<?xml version="1.0" encoding="utf-8"?>
<!-- Generator: Adobe Illustrator 25.0.0, SVG Export Plug-In . SVG Version: 6.00 Build 0)  -->
<svg version="1.1" id="圖層_1" xmlns="http://www.w3.org/2000/svg" xmlns:xlink="http://www.w3.org/1999/xlink" x="0px" y="0px"
	 viewBox="0 0 505.93 103.93" style="enable-background:new 0 0 505.93 103.93;" xml:space="preserve">
<style type="text/css">
	.st0{fill:#E6E6E6;}
</style>
<g>
	<path class="st0" d="M62.87,82.16l14.57-58.45h13.6L79.21,71.16h43.85l-2.74,11H62.87z"/>
	<path class="st0" d="M130.23,82.16l14.57-58.45h13.6l-14.57,58.45H130.23z"/>
	<path class="st0" d="M153.73,82.16l14.57-58.45h59.83l-2.48,9.95h-46.23l-3.25,13.05h26.99l-2.48,9.95h-26.99l-3.61,14.49h46.78
		l-2.74,11H153.73z"/>
	<path class="st0" d="M294.29,82.16l14.57-58.45h59.83l-2.48,9.95h-46.23l-3.25,13.05h26.99l-2.48,9.95h-26.98l-3.61,14.49h46.78
		l-2.74,11H294.29z"/>
	<path class="st0" d="M375.63,37.54c1.32-5.31,3.22-8.94,5.7-10.89c2.48-1.95,6.55-2.93,12.23-2.93h43.02
		c5.68,0,9.27,0.98,10.77,2.93c1.5,1.96,1.59,5.58,0.27,10.89l-7.68,30.8c-1.33,5.35-3.24,8.99-5.71,10.92
		c-2.47,1.94-6.55,2.9-12.23,2.9h-43.02c-5.68,0-9.27-0.97-10.78-2.9c-1.51-1.93-1.59-5.58-0.26-10.92L375.63,37.54z M380.85,71.16
		h44.84l9.22-36.99h-44.84L380.85,71.16z"/>
	<g>
		<polygon class="st0" points="226.8,82.16 232.77,82.16 237.66,82.16 248.87,37.12 253.2,37.12 271.92,55.38 275.34,41.65 
			256.94,23.72 238.57,23.72 224.02,82.16 		"/>
		<polygon class="st0" points="296.18,23.72 290.21,23.72 285.32,23.72 274.11,68.76 269.78,68.76 251.06,50.5 247.64,64.23 
			266.04,82.16 284.41,82.16 298.96,23.72 		"/>
	</g>
</g>
</svg>
